<?xml version="1.0" encoding="UTF-8" standalone="no"?>
<svg
   xmlns:dc="http://purl.org/dc/elements/1.1/"
   xmlns:cc="http://creativecommons.org/ns#"
   xmlns:rdf="http://www.w3.org/1999/02/22-rdf-syntax-ns#"
   xmlns:svg="http://www.w3.org/2000/svg"
   xmlns="http://www.w3.org/2000/svg"
   xmlns:sodipodi="http://sodipodi.sourceforge.net/DTD/sodipodi-0.dtd"
   xmlns:inkscape="http://www.inkscape.org/namespaces/inkscape"
   width="20.046761mm"
   height="20.17395mm"
   viewBox="0 0 20.046761 20.17395"
   version="1.1"
   id="svg896"
   inkscape:version="1.0.2 (e86c8708, 2021-01-15)"
   sodipodi:docname="linkedin.svg">
  <defs
     id="defs890" />
  <sodipodi:namedview
     id="base"
     pagecolor="#ffffff"
     bordercolor="#666666"
     borderopacity="1.0"
     inkscape:pageopacity="0.0"
     inkscape:pageshadow="2"
     inkscape:zoom="0.35"
     inkscape:cx="172.16936"
     inkscape:cy="386.69543"
     inkscape:document-units="mm"
     inkscape:current-layer="layer1"
     inkscape:document-rotation="0"
     showgrid="false"
     fit-margin-top="0"
     fit-margin-left="0"
     fit-margin-right="0"
     fit-margin-bottom="0"
     inkscape:window-width="1252"
     inkscape:window-height="1174"
     inkscape:window-x="0"
     inkscape:window-y="23"
     inkscape:window-maximized="0" />
  <metadata
     id="metadata893">
    <rdf:RDF>
      <cc:Work
         rdf:about="">
        <dc:format>image/svg+xml</dc:format>
        <dc:type
           rdf:resource="http://purl.org/dc/dcmitype/StillImage" />
        <dc:title></dc:title>
      </cc:Work>
    </rdf:RDF>
  </metadata>
  <g
     inkscape:label="Layer 1"
     inkscape:groupmode="layer"
     id="layer1"
     transform="translate(-60.280191,-45.853501)">
    <path
       d="m 60.280191,47.298641 c 0,-0.79791 0.66323,-1.44514 1.48142,-1.44514 h 17.08392 c 0.81816,0 1.48142,0.64723 1.48142,1.44514 v 17.28368 c 0,0.79818 -0.66326,1.44513 -1.48142,1.44513 h -17.08392 c -0.81819,0 -1.48142,-0.64695 -1.48142,-1.44513 z"
       style="fill:#000000;fill-opacity:1;fill-rule:nonzero;stroke:none;stroke-width:0.269565"
       id="path14"
       inkscape:connector-curvature="0" />
    <path
       d="m 66.356981,62.741191 v -9.10967 h -3.02788 v 9.10967 z m -1.51395,-10.35344 c 1.05588,0 1.71308,-0.69952 1.71308,-1.57372 -0.0197,-0.89387 -0.6572,-1.57399 -1.69305,-1.57399 -1.03575,0 -1.71295,0.68012 -1.71295,1.57399 0,0.8742 0.65706,1.57372 1.67318,1.57372 h 0.0197 z"
       style="fill:#ffffff;fill-opacity:1;fill-rule:evenodd;stroke:none;stroke-width:0.269565"
       id="path28"
       inkscape:connector-curvature="0" />
    <path
       d="m 68.032411,62.741191 h 3.02786 v -5.08722 c 0,-0.27226 0.0197,-0.54425 0.0996,-0.73888 0.21888,-0.54398 0.71709,-1.10737 1.55355,-1.10737 1.09565,0 1.53393,0.83538 1.53393,2.06001 v 4.87346 h 3.02762 v -5.22335 c 0,-2.79808 -1.4938,-4.10008 -3.48591,-4.10008 -1.63345,0 -2.35055,0.91301 -2.74896,1.5349 h 0.0202 v -1.32114 h -3.02786 c 0.0397,0.85479 0,9.10967 0,9.10967 z"
       style="fill:#ffffff;fill-opacity:1;fill-rule:evenodd;stroke:none;stroke-width:0.269565"
       id="path30"
       inkscape:connector-curvature="0" />
  </g>
</svg>
